{"title":"IRON MAN III {2013} HDCAM  AVC 1080P AC3 $MURDER$","uid":8429393,"size":1793994877,"categoryP":"video","categoryS":"hd___movies","magnet":"?xt=urn:btih:feb39855c495ef36e60bfaeb3d2ae370a33f1204&amp;dn=IRON+MAN+III+%7B2013%7D+HDCAM++AVC+1080P+AC3+%24MURDER%24&amp;tr=udp%3A%2F%2Ftracker.openbittorrent.com%3A80&amp;tr=udp%3A%2F%2Fopen.demonii.com%3A1337&amp;tr=udp%3A%2F%2Ftracker.coppersurfer.tk%3A6969&amp;tr=udp%3A%2F%2Fexodus.desync.com%3A6969","seeders":0,"leechers":0,"uploader":"Gh0stNet","files":3,"time":1367444747,"description":"Iron Man 3 {2013} HDCAM 1080P AC3 - $MURDER$\n &lt;a href=&quot;\nhttp://www.imdb.com/title/tt1300854/&quot; rel=&quot;nofollow&quot; target=&quot;_NEW&quot;&gt;\nhttp://www.imdb.com/title/tt1300854/&lt;/a&gt;\n\nComplete name                            : Iron Man 3 {2013} HDCAM 1080P AC3 - $MURDER$\nFormat                                   : Matroska\nFormat version                           : Version 1\nFile size                                : 1.65 GiB\nDuration                                 : 1h 58mn\nOverall bit rate                         : 1 998 Kbps\nEncoded date                             : UTC 2013-05-01 00:03:10\nENCODER                                  : DOCMURDER82   Fumbling Towards Ecstasy\n\nVideo\nID                                       : 1\nFormat                                   : AVC\nFormat/Info                              : Advanced Video Codec\nFormat profile                           : &lt;a class=&quot;__cf_email__&quot; href=&quot;/cdn-cgi/l/email-protection&quot; data-cfemail=&quot;9dd5f4faf5ddd1aeb3ad&quot;&gt;[email&amp;#160;protected]&lt;/a&gt;&lt;script data-cfhash='f9e31' type=&quot;text/javascript&quot;&gt;\n/* &lt;![CDATA[ */!function(){try{var t=&quot;currentScript&quot;in document?document.currentScript:function(){for(var t=document.getElementsByTagName(&quot;script&quot;),e=t.length;e--;)if(t[e].getAttribute(&quot;data-cfhash&quot;))return t[e]}();if(t&amp;&amp;t.previousSibling){var e,r,n,i,c=t.previousSibling,a=c.getAttribute(&quot;data-cfemail&quot;);if(a){for(e=&quot;&quot;,r=parseInt(a.substr(0,2),16),n=2;a.length-n;n+=2)i=parseInt(a.substr(n,2),16)^r,e+=String.fromCharCode(i);e=document.createTextNode(e),c.parentNode.replaceChild(e,c)}t.parentNode.removeChild(t);}}catch(u){}}()/* ]]&gt; */&lt;/script&gt;\nFormat settings, CABAC                   : No\nFormat settings, ReFrames                : 1 frame\nCodec ID                                 : V_MPEG4/ISO/AVC\nDuration                                 : 1h 58mn\nBit rate                                 : 1 800 Kbps\nWidth                                    : 1 920 pixels\nHeight                                   : 804 pixels\nDisplay aspect ratio                     : 2.40:1\nFrame rate                               : 25.000 fps\nColor space                              : YUV\nChroma subsampling                       : 4:2:0\nBit depth                                : 8 bits\nScan type                                : Progressive\nBits/(Pixel*Frame)                       : 0.047\nStream size                              : 1.46 GiB (88%)\nWriting library                          : x264 core\nDefault                                  : Yes\nForced                                   : No\n\nAudio\nID                                       : 2\nFormat                                   : AC-3\nFormat/Info                              : Audio Coding 3\nMode extension                           : CM (complete main)\nCodec ID                                 : A_AC3\nDuration                                 : 1h 58mn\nBit rate mode                            : Constant\nBit rate                                 : 192 Kbps\nChannel(s)                               : 2 channels\nChannel positions                        : Front: L R\nSampling rate                            : 48.0 KHz\nBit depth                                : 16 bits\nCompression mode                         : Lossy\nStream size                              : 162 MiB (10%)\nDefault                                  : Yes\nForced                                   : No\n\nNote:-\nLook sample for quality","torrent":{"xt":"urn:btih:feb39855c495ef36e60bfaeb3d2ae370a33f1204","amp;dn":"IRON+MAN+III+%7B2013%7D+HDCAM++AVC+1080P+AC3+%24MURDER%24","amp;tr":["udp%3A%2F%2Ftracker.openbittorrent.com%3A80","udp%3A%2F%2Fopen.demonii.com%3A1337","udp%3A%2F%2Ftracker.coppersurfer.tk%3A6969","udp%3A%2F%2Fexodus.desync.com%3A6969"],"infoHash":"feb39855c495ef36e60bfaeb3d2ae370a33f1204","infoHashBuffer":{"type":"Buffer","data":[254,179,152,85,196,149,239,54,230,11,250,235,61,42,227,112,163,63,18,4]},"announce":[],"urlList":[]}}